<svg width="1200" height="760" viewBox="0 0 1200 760" fill="none" xmlns="http://www.w3.org/2000/svg">
  <defs>
    <filter id="softShadow" x="-20%" y="-20%" width="140%" height="140%">
      <feDropShadow dx="0" dy="18" stdDeviation="28" flood-color="#1F2933" flood-opacity="0.12"/>
    </filter>
    <linearGradient id="appBg" x1="180" y1="80" x2="1060" y2="680" gradientUnits="userSpaceOnUse">
      <stop stop-color="#F7F8F3"/>
      <stop offset="0.55" stop-color="#F2F5F0"/>
      <stop offset="1" stop-color="#EEF3F4"/>
    </linearGradient>
    <linearGradient id="timerGlow" x1="432" y1="152" x2="952" y2="568" gradientUnits="userSpaceOnUse">
      <stop stop-color="#FFFFFF"/>
      <stop offset="1" stop-color="#EEF3EC"/>
    </linearGradient>
    <linearGradient id="startButton" x1="570" y1="602" x2="724" y2="602" gradientUnits="userSpaceOnUse">
      <stop stop-color="#EF806F"/>
      <stop offset="1" stop-color="#D96B61"/>
    </linearGradient>
  </defs>

  <rect width="1200" height="760" fill="#E8ECE7"/>

  <g opacity="0.82">
    <rect x="760" y="18" width="72" height="30" rx="15" fill="#F7F8F3"/>
    <text x="796" y="38" text-anchor="middle" font-family="-apple-system, BlinkMacSystemFont, 'PingFang SC', sans-serif" font-size="15" font-weight="600" fill="#343A40">24:12</text>
    <rect x="842" y="18" width="30" height="30" rx="15" fill="#F7F8F3"/>
    <path d="M857 26C862 26 866 30 866 35C866 40 862 44 857 44C852 44 848 40 848 35C848 30 852 26 857 26Z" fill="#7BAF9E"/>
  </g>

  <rect x="110" y="70" width="980" height="620" rx="28" fill="url(#appBg)" filter="url(#softShadow)"/>

  <g>
    <circle cx="144" cy="100" r="6" fill="#EF7B70"/>
    <circle cx="164" cy="100" r="6" fill="#F0C15D"/>
    <circle cx="184" cy="100" r="6" fill="#79B57A"/>
  </g>

  <rect x="110" y="70" width="234" height="620" rx="28" fill="#F7F8F3"/>
  <path d="M344 98V662" stroke="#DDE4DD" stroke-width="1"/>

  <g>
    <circle cx="162" cy="154" r="24" fill="#DCEBE2"/>
    <path d="M154 155C154 149 158 145 162 145C166 145 170 149 170 155C170 161 166 165 162 165C158 165 154 161 154 155Z" fill="#6D9F8E"/>
    <text x="198" y="150" font-family="-apple-system, BlinkMacSystemFont, 'PingFang SC', sans-serif" font-size="16" font-weight="700" fill="#202328">TOCK</text>
    <text x="198" y="174" font-family="-apple-system, BlinkMacSystemFont, 'PingFang SC', sans-serif" font-size="13" font-weight="500" fill="#7C8580">今日 2.5 小时</text>
  </g>

  <g>
    <rect x="138" y="240" width="178" height="44" rx="12" fill="#E7F0EA"/>
    <rect x="151" y="253" width="18" height="18" rx="5" fill="#7BAF9E"/>
    <text x="184" y="268" font-family="-apple-system, BlinkMacSystemFont, 'PingFang SC', sans-serif" font-size="15" font-weight="700" fill="#24282D">专注</text>

    <rect x="138" y="300" width="178" height="44" rx="12" fill="transparent"/>
    <rect x="151" y="313" width="18" height="18" rx="5" fill="#D9DED9"/>
    <text x="184" y="328" font-family="-apple-system, BlinkMacSystemFont, 'PingFang SC', sans-serif" font-size="15" font-weight="600" fill="#777F7A">统计</text>

    <rect x="138" y="360" width="178" height="44" rx="12" fill="transparent"/>
    <rect x="151" y="373" width="18" height="18" rx="5" fill="#D9DED9"/>
    <text x="184" y="388" font-family="-apple-system, BlinkMacSystemFont, 'PingFang SC', sans-serif" font-size="15" font-weight="600" fill="#777F7A">任务</text>
  </g>

  <g>
    <text x="394" y="126" font-family="-apple-system, BlinkMacSystemFont, 'PingFang SC', sans-serif" font-size="20" font-weight="700" fill="#202328">专注</text>
    <text x="394" y="154" font-family="-apple-system, BlinkMacSystemFont, 'PingFang SC', sans-serif" font-size="14" font-weight="500" fill="#7C8580">选择任务，然后开始一段安静的时间。</text>
  </g>

  <g filter="url(#softShadow)">
    <rect x="432" y="174" width="520" height="390" rx="24" fill="url(#timerGlow)"/>
  </g>

  <text x="692" y="318" text-anchor="middle" font-family="-apple-system, BlinkMacSystemFont, 'SF Pro Display', sans-serif" font-size="92" font-weight="700" fill="#1F2428">25:00</text>

  <g>
    <rect x="512" y="374" width="360" height="48" rx="14" fill="#FFFFFF" stroke="#DDE4DD"/>
    <text x="536" y="404" font-family="-apple-system, BlinkMacSystemFont, 'PingFang SC', sans-serif" font-size="15" font-weight="500" fill="#9AA29D">搜索或输入任务</text>
  </g>

  <g>
    <rect x="558" y="444" width="126" height="50" rx="13" fill="#F7F8F3" stroke="#DDE4DD"/>
    <text x="621" y="464" text-anchor="middle" font-family="-apple-system, BlinkMacSystemFont, 'PingFang SC', sans-serif" font-size="12" font-weight="600" fill="#7C8580">专注</text>
    <text x="621" y="483" text-anchor="middle" font-family="-apple-system, BlinkMacSystemFont, 'PingFang SC', sans-serif" font-size="16" font-weight="800" fill="#252A2E">25 分</text>
    <path d="M601 488H641" stroke="#B9C6BD" stroke-width="1" stroke-dasharray="2 3"/>

    <rect x="700" y="444" width="126" height="50" rx="13" fill="#F7F8F3" stroke="#DDE4DD"/>
    <text x="763" y="464" text-anchor="middle" font-family="-apple-system, BlinkMacSystemFont, 'PingFang SC', sans-serif" font-size="12" font-weight="600" fill="#7C8580">休息</text>
    <text x="763" y="483" text-anchor="middle" font-family="-apple-system, BlinkMacSystemFont, 'PingFang SC', sans-serif" font-size="16" font-weight="800" fill="#252A2E">5 分</text>
    <path d="M747 488H779" stroke="#B9C6BD" stroke-width="1" stroke-dasharray="2 3"/>

  </g>

  <g>
    <rect x="612" y="600" width="160" height="50" rx="17" fill="url(#startButton)"/>
    <text x="692" y="632" text-anchor="middle" font-family="-apple-system, BlinkMacSystemFont, 'PingFang SC', sans-serif" font-size="17" font-weight="800" fill="#FFFFFF">开始</text>
  </g>

  <g opacity="0.92">
    <rect x="940" y="602" width="104" height="34" rx="17" fill="#F7F8F3" stroke="#DDE4DD"/>
    <circle cx="960" cy="619" r="6" fill="#7BAF9E"/>
    <text x="978" y="624" font-family="-apple-system, BlinkMacSystemFont, 'PingFang SC', sans-serif" font-size="12" font-weight="600" fill="#7C8580">菜单栏计时</text>
  </g>
</svg>
