<svg width="800" height="700" viewBox="0 0 800 700" fill="none" xmlns="http://www.w3.org/2000/svg">
  <defs>
    <filter id="softShadow" x="-20%" y="-20%" width="140%" height="140%">
      <feDropShadow dx="0" dy="18" stdDeviation="28" flood-color="#1F2933" flood-opacity="0.12"/>
    </filter>
    <linearGradient id="appBg" x1="70" y1="58" x2="750" y2="640" gradientUnits="userSpaceOnUse">
      <stop stop-color="#F7F8F3"/>
      <stop offset="0.55" stop-color="#F2F5F0"/>
      <stop offset="1" stop-color="#EEF3F4"/>
    </linearGradient>
    <linearGradient id="timerGlow" x1="260" y1="150" x2="700" y2="625" gradientUnits="userSpaceOnUse">
      <stop stop-color="#FFFFFF"/>
      <stop offset="1" stop-color="#EEF3EC"/>
    </linearGradient>
    <linearGradient id="startButton" x1="425" y1="590" x2="545" y2="590" gradientUnits="userSpaceOnUse">
      <stop stop-color="#EF806F"/>
      <stop offset="1" stop-color="#D96B61"/>
    </linearGradient>
  </defs>

  <rect width="800" height="700" fill="#E8ECE7"/>

  <g opacity="0.82">
    <rect x="510" y="18" width="72" height="30" rx="15" fill="#F7F8F3"/>
    <text x="546" y="38" text-anchor="middle" font-family="-apple-system, BlinkMacSystemFont, 'PingFang SC', sans-serif" font-size="15" font-weight="600" fill="#343A40">24:12</text>
    <rect x="592" y="18" width="30" height="30" rx="15" fill="#F7F8F3"/>
    <path d="M607 26C612 26 616 30 616 35C616 40 612 44 607 44C602 44 598 40 598 35C598 30 602 26 607 26Z" fill="#7BAF9E"/>
  </g>

  <rect x="40" y="58" width="720" height="584" rx="28" fill="url(#appBg)" filter="url(#softShadow)"/>

  <g>
    <circle cx="74" cy="88" r="6" fill="#EF7B70"/>
    <circle cx="94" cy="88" r="6" fill="#F0C15D"/>
    <circle cx="114" cy="88" r="6" fill="#79B57A"/>
  </g>

  <rect x="40" y="58" width="178" height="584" rx="28" fill="#F7F8F3"/>
  <path d="M218 86V614" stroke="#DDE4DD" stroke-width="1"/>

  <g>
    <circle cx="82" cy="142" r="22" fill="#DCEBE2"/>
    <path d="M75 143C75 137 78 134 82 134C86 134 89 137 89 143C89 149 86 152 82 152C78 152 75 149 75 143Z" fill="#6D9F8E"/>
    <text x="116" y="138" font-family="-apple-system, BlinkMacSystemFont, 'PingFang SC', sans-serif" font-size="15" font-weight="700" fill="#202328">TOCK</text>
    <text x="116" y="162" font-family="-apple-system, BlinkMacSystemFont, 'PingFang SC', sans-serif" font-size="12" font-weight="500" fill="#7C8580">今日 2.5 小时</text>
  </g>

  <g>
    <rect x="64" y="224" width="130" height="42" rx="12" fill="#E7F0EA"/>
    <rect x="77" y="236" width="18" height="18" rx="5" fill="#7BAF9E"/>
    <text x="110" y="251" font-family="-apple-system, BlinkMacSystemFont, 'PingFang SC', sans-serif" font-size="15" font-weight="700" fill="#24282D">专注</text>

    <rect x="64" y="282" width="130" height="42" rx="12" fill="transparent"/>
    <rect x="77" y="294" width="18" height="18" rx="5" fill="#D9DED9"/>
    <text x="110" y="309" font-family="-apple-system, BlinkMacSystemFont, 'PingFang SC', sans-serif" font-size="15" font-weight="600" fill="#777F7A">统计</text>

    <rect x="64" y="340" width="130" height="42" rx="12" fill="transparent"/>
    <rect x="77" y="352" width="18" height="18" rx="5" fill="#D9DED9"/>
    <text x="110" y="367" font-family="-apple-system, BlinkMacSystemFont, 'PingFang SC', sans-serif" font-size="15" font-weight="600" fill="#777F7A">任务</text>
  </g>

  <g>
    <text x="252" y="112" font-family="-apple-system, BlinkMacSystemFont, 'PingFang SC', sans-serif" font-size="20" font-weight="700" fill="#202328">专注</text>
  </g>

  <g filter="url(#softShadow)">
    <rect x="282" y="154" width="410" height="468" rx="24" fill="url(#timerGlow)"/>
  </g>

  <text x="487" y="262" text-anchor="middle" font-family="-apple-system, BlinkMacSystemFont, 'SF Pro Display', sans-serif" font-size="62" font-weight="700" fill="#1F2428">25:00</text>

  <g>
    <rect x="402" y="296" width="170" height="36" rx="18" fill="#F4F6F2" stroke="#DDE4DD"/>
    <rect x="406" y="300" width="80" height="28" rx="14" fill="#E7F0EA"/>
    <text x="446" y="319" text-anchor="middle" font-family="-apple-system, BlinkMacSystemFont, 'PingFang SC', sans-serif" font-size="13" font-weight="700" fill="#2D3933">倒计时</text>
    <text x="532" y="319" text-anchor="middle" font-family="-apple-system, BlinkMacSystemFont, 'PingFang SC', sans-serif" font-size="13" font-weight="600" fill="#7C8580">正计时</text>
  </g>

  <g>
    <rect x="340" y="360" width="294" height="44" rx="14" fill="#FFFFFF" stroke="#DDE4DD"/>
    <text x="364" y="388" font-family="-apple-system, BlinkMacSystemFont, 'PingFang SC', sans-serif" font-size="15" font-weight="500" fill="#9AA29D">搜索或输入任务</text>
  </g>

  <g>
    <rect x="340" y="418" width="294" height="46" rx="14" fill="#FFFFFF" stroke="#DDE4DD"/>
    <text x="362" y="446" font-family="-apple-system, BlinkMacSystemFont, 'PingFang SC', sans-serif" font-size="13" font-weight="600" fill="#7C8580">分类</text>
    <circle cx="424" cy="441" r="8" fill="#7BAF9E"/>
    <text x="440" y="446" font-family="-apple-system, BlinkMacSystemFont, 'PingFang SC', sans-serif" font-size="15" font-weight="700" fill="#252A2E">学习</text>
    <path d="M484 437L490 443L496 437" stroke="#7C8580" stroke-width="1.7" stroke-linecap="round" stroke-linejoin="round"/>
    <circle cx="548" cy="441" r="8" fill="#7BAF9E"/>
    <circle cx="572" cy="441" r="8" fill="#E6B45F"/>
    <circle cx="596" cy="441" r="8" fill="#D77B72"/>
    <circle cx="620" cy="441" r="8" fill="#8C93C8"/>
  </g>

  <g>
    <rect x="360" y="488" width="116" height="50" rx="13" fill="#F7F8F3" stroke="#DDE4DD"/>
    <text x="418" y="508" text-anchor="middle" font-family="-apple-system, BlinkMacSystemFont, 'PingFang SC', sans-serif" font-size="12" font-weight="600" fill="#7C8580">专注</text>
    <text x="418" y="527" text-anchor="middle" font-family="-apple-system, BlinkMacSystemFont, 'PingFang SC', sans-serif" font-size="16" font-weight="800" fill="#252A2E">25 分</text>
    <path d="M398 532H438" stroke="#B9C6BD" stroke-width="1" stroke-dasharray="2 3"/>

    <rect x="498" y="488" width="116" height="50" rx="13" fill="#F7F8F3" stroke="#DDE4DD"/>
    <text x="556" y="508" text-anchor="middle" font-family="-apple-system, BlinkMacSystemFont, 'PingFang SC', sans-serif" font-size="12" font-weight="600" fill="#7C8580">休息</text>
    <text x="556" y="527" text-anchor="middle" font-family="-apple-system, BlinkMacSystemFont, 'PingFang SC', sans-serif" font-size="16" font-weight="800" fill="#252A2E">5 分</text>
    <path d="M540 532H572" stroke="#B9C6BD" stroke-width="1" stroke-dasharray="2 3"/>
  </g>

  <g>
    <rect x="425" y="574" width="124" height="46" rx="16" fill="url(#startButton)"/>
    <text x="487" y="604" text-anchor="middle" font-family="-apple-system, BlinkMacSystemFont, 'PingFang SC', sans-serif" font-size="17" font-weight="800" fill="#FFFFFF">开始</text>
  </g>
</svg>
