<svg width="800" height="420" viewBox="0 0 800 420" fill="none" xmlns="http://www.w3.org/2000/svg">
  <defs>
    <filter id="softShadow" x="-20%" y="-20%" width="140%" height="140%">
      <feDropShadow dx="0" dy="18" stdDeviation="28" flood-color="#1F2933" flood-opacity="0.12"/>
    </filter>
    <linearGradient id="bg" x1="80" y1="40" x2="720" y2="390" gradientUnits="userSpaceOnUse">
      <stop stop-color="#F7F8F3"/>
      <stop offset="1" stop-color="#EEF3F4"/>
    </linearGradient>
  </defs>

  <rect width="800" height="420" fill="#E8ECE7"/>
  <rect x="52" y="44" width="696" height="332" rx="28" fill="url(#bg)" filter="url(#softShadow)"/>

  <text x="92" y="92" font-family="-apple-system, BlinkMacSystemFont, 'PingFang SC', sans-serif" font-size="20" font-weight="800" fill="#202328">菜单栏状态</text>

  <g>
    <text x="92" y="136" font-family="-apple-system, BlinkMacSystemFont, 'PingFang SC', sans-serif" font-size="14" font-weight="700" fill="#7C8580">显示时间</text>
    <rect x="92" y="154" width="190" height="46" rx="23" fill="#F7F8F3" stroke="#DDE4DD"/>
    <text x="187" y="183" text-anchor="middle" font-family="-apple-system, BlinkMacSystemFont, 'PingFang SC', sans-serif" font-size="17" font-weight="700" fill="#252A2E">24:12</text>
  </g>

  <g>
    <text x="320" y="136" font-family="-apple-system, BlinkMacSystemFont, 'PingFang SC', sans-serif" font-size="14" font-weight="700" fill="#7C8580">隐藏时间</text>
    <rect x="320" y="154" width="190" height="46" rx="23" fill="#F7F8F3" stroke="#DDE4DD"/>
    <circle cx="415" cy="177" r="14" fill="#DCEBE2"/>
    <path d="M408 177C408 172 411 169 415 169C419 169 422 172 422 177C422 182 419 185 415 185C411 185 408 182 408 177Z" fill="#6D9F8E"/>
  </g>

  <g>
    <text x="548" y="136" font-family="-apple-system, BlinkMacSystemFont, 'PingFang SC', sans-serif" font-size="14" font-weight="700" fill="#7C8580">休息中</text>
    <rect x="548" y="154" width="118" height="46" rx="23" fill="#F7F8F3" stroke="#DDE4DD"/>
    <text x="607" y="183" text-anchor="middle" font-family="-apple-system, BlinkMacSystemFont, 'PingFang SC', sans-serif" font-size="17" font-weight="700" fill="#6D9F8E">05:00</text>
  </g>

  <g filter="url(#softShadow)">
    <rect x="312" y="232" width="232" height="108" rx="20" fill="#FFFFFF"/>
  </g>
  <text x="336" y="266" font-family="-apple-system, BlinkMacSystemFont, 'PingFang SC', sans-serif" font-size="13" font-weight="700" fill="#7C8580">当前任务</text>
  <text x="336" y="292" font-family="-apple-system, BlinkMacSystemFont, 'PingFang SC', sans-serif" font-size="16" font-weight="800" fill="#202328">写 PRD</text>
  <text x="488" y="292" text-anchor="end" font-family="-apple-system, BlinkMacSystemFont, 'PingFang SC', sans-serif" font-size="18" font-weight="800" fill="#202328">18:42</text>
  <path d="M336 308H520" stroke="#E7ECE8"/>
  <text x="336" y="330" font-family="-apple-system, BlinkMacSystemFont, 'PingFang SC', sans-serif" font-size="13" font-weight="700" fill="#38413C">暂停</text>
  <text x="398" y="330" font-family="-apple-system, BlinkMacSystemFont, 'PingFang SC', sans-serif" font-size="13" font-weight="700" fill="#38413C">结束</text>
  <text x="460" y="330" font-family="-apple-system, BlinkMacSystemFont, 'PingFang SC', sans-serif" font-size="13" font-weight="700" fill="#7C8580">隐藏时间</text>
  <text x="336" y="354" font-family="-apple-system, BlinkMacSystemFont, 'PingFang SC', sans-serif" font-size="13" font-weight="700" fill="#7C8580">打开主窗口</text>
</svg>
