<svg width="800" height="700" viewBox="0 0 800 700" fill="none" xmlns="http://www.w3.org/2000/svg">
  <defs>
    <filter id="softShadow" x="-20%" y="-20%" width="140%" height="140%">
      <feDropShadow dx="0" dy="18" stdDeviation="28" flood-color="#1F2933" flood-opacity="0.12"/>
    </filter>
    <filter id="panelShadow" x="-20%" y="-20%" width="140%" height="140%">
      <feDropShadow dx="0" dy="10" stdDeviation="16" flood-color="#1F2933" flood-opacity="0.075"/>
    </filter>
    <linearGradient id="appBg" x1="70" y1="58" x2="750" y2="640" gradientUnits="userSpaceOnUse">
      <stop stop-color="#F7F8F3"/>
      <stop offset="0.55" stop-color="#F2F5F0"/>
      <stop offset="1" stop-color="#EEF3F4"/>
    </linearGradient>
    <linearGradient id="panelBg" x1="250" y1="150" x2="720" y2="620" gradientUnits="userSpaceOnUse">
      <stop stop-color="#FFFFFF"/>
      <stop offset="1" stop-color="#F3F6F1"/>
    </linearGradient>
  </defs>

  <rect width="800" height="700" fill="#E8ECE7"/>

  <g opacity="0.82">
    <rect x="510" y="18" width="72" height="30" rx="15" fill="#F7F8F3"/>
    <text x="546" y="38" text-anchor="middle" font-family="-apple-system, BlinkMacSystemFont, 'PingFang SC', sans-serif" font-size="15" font-weight="600" fill="#343A40">24:12</text>
    <rect x="592" y="18" width="30" height="30" rx="15" fill="#F7F8F3"/>
    <path d="M607 26C612 26 616 30 616 35C616 40 612 44 607 44C602 44 598 40 598 35C598 30 602 26 607 26Z" fill="#7BAF9E"/>
  </g>

  <rect x="40" y="58" width="720" height="584" rx="28" fill="url(#appBg)" filter="url(#softShadow)"/>

  <g>
    <circle cx="74" cy="88" r="6" fill="#EF7B70"/>
    <circle cx="94" cy="88" r="6" fill="#F0C15D"/>
    <circle cx="114" cy="88" r="6" fill="#79B57A"/>
  </g>

  <rect x="40" y="58" width="178" height="584" rx="28" fill="#F7F8F3"/>
  <path d="M218 86V614" stroke="#DDE4DD" stroke-width="1"/>

  <g>
    <circle cx="82" cy="142" r="22" fill="#DCEBE2"/>
    <path d="M75 143C75 137 78 134 82 134C86 134 89 137 89 143C89 149 86 152 82 152C78 152 75 149 75 143Z" fill="#6D9F8E"/>
    <text x="116" y="138" font-family="-apple-system, BlinkMacSystemFont, 'PingFang SC', sans-serif" font-size="15" font-weight="700" fill="#202328">TOCK</text>
    <text x="116" y="162" font-family="-apple-system, BlinkMacSystemFont, 'PingFang SC', sans-serif" font-size="12" font-weight="500" fill="#7C8580">今日 2.5 小时</text>
  </g>

  <g>
    <rect x="64" y="224" width="130" height="42" rx="12" fill="transparent"/>
    <rect x="77" y="236" width="18" height="18" rx="5" fill="#D9DED9"/>
    <text x="110" y="251" font-family="-apple-system, BlinkMacSystemFont, 'PingFang SC', sans-serif" font-size="15" font-weight="600" fill="#777F7A">专注</text>

    <rect x="64" y="282" width="130" height="42" rx="12" fill="#E7F0EA"/>
    <rect x="77" y="294" width="18" height="18" rx="5" fill="#7BAF9E"/>
    <text x="110" y="309" font-family="-apple-system, BlinkMacSystemFont, 'PingFang SC', sans-serif" font-size="15" font-weight="700" fill="#24282D">统计</text>

    <rect x="64" y="340" width="130" height="42" rx="12" fill="transparent"/>
    <rect x="77" y="352" width="18" height="18" rx="5" fill="#D9DED9"/>
    <text x="110" y="367" font-family="-apple-system, BlinkMacSystemFont, 'PingFang SC', sans-serif" font-size="15" font-weight="600" fill="#777F7A">任务</text>
  </g>

  <g>
    <text x="252" y="112" font-family="-apple-system, BlinkMacSystemFont, 'PingFang SC', sans-serif" font-size="20" font-weight="700" fill="#202328">统计</text>
  </g>

  <g>
    <rect x="448" y="96" width="158" height="38" rx="19" fill="#F5F7F3" stroke="#DDE4DD"/>
    <rect x="453" y="101" width="35" height="28" rx="14" fill="#E7F0EA"/>
    <text x="470" y="120" text-anchor="middle" font-family="-apple-system, BlinkMacSystemFont, 'PingFang SC', sans-serif" font-size="13" font-weight="800" fill="#2D3933">日</text>
    <text x="512" y="120" text-anchor="middle" font-family="-apple-system, BlinkMacSystemFont, 'PingFang SC', sans-serif" font-size="13" font-weight="700" fill="#7C8580">周</text>
    <text x="554" y="120" text-anchor="middle" font-family="-apple-system, BlinkMacSystemFont, 'PingFang SC', sans-serif" font-size="13" font-weight="700" fill="#7C8580">月</text>
    <text x="590" y="120" text-anchor="middle" font-family="-apple-system, BlinkMacSystemFont, 'PingFang SC', sans-serif" font-size="13" font-weight="700" fill="#7C8580">年</text>

    <rect x="620" y="96" width="104" height="38" rx="19" fill="#F5F7F3" stroke="#DDE4DD"/>
    <circle cx="634" cy="115" r="7" fill="#7BAF9E"/>
    <text x="670" y="120" text-anchor="middle" font-family="-apple-system, BlinkMacSystemFont, 'PingFang SC', sans-serif" font-size="12" font-weight="700" fill="#38413C">全部分类</text>
    <path d="M706 112L711 117L716 112" stroke="#7C8580" stroke-width="1.5" stroke-linecap="round" stroke-linejoin="round"/>
  </g>

  <g filter="url(#panelShadow)">
    <rect x="252" y="154" width="472" height="142" rx="22" fill="url(#panelBg)"/>
  </g>
  <text x="280" y="188" font-family="-apple-system, BlinkMacSystemFont, 'PingFang SC', sans-serif" font-size="16" font-weight="800" fill="#7C8580">专注时间</text>
  <text x="280" y="228" font-family="-apple-system, BlinkMacSystemFont, 'PingFang SC', sans-serif" font-size="28" font-weight="900" fill="#202328">4小时 20分钟</text>
  <text x="280" y="262" font-family="-apple-system, BlinkMacSystemFont, 'PingFang SC', sans-serif" font-size="16" font-weight="700" fill="#7C8580">2026年7月10日</text>
  <text x="528" y="204" font-family="-apple-system, BlinkMacSystemFont, 'PingFang SC', sans-serif" font-size="14" font-weight="800" fill="#7C8580">专注记录</text>
  <text x="528" y="236" font-family="-apple-system, BlinkMacSystemFont, 'PingFang SC', sans-serif" font-size="22" font-weight="900" fill="#202328">3段</text>
  <text x="632" y="204" font-family="-apple-system, BlinkMacSystemFont, 'PingFang SC', sans-serif" font-size="14" font-weight="800" fill="#7C8580">平均时长</text>
  <text x="632" y="236" font-family="-apple-system, BlinkMacSystemFont, 'PingFang SC', sans-serif" font-size="22" font-weight="900" fill="#202328">1h26m</text>

  <g filter="url(#panelShadow)">
    <rect x="252" y="314" width="472" height="136" rx="22" fill="url(#panelBg)"/>
  </g>
  <text x="280" y="348" font-family="-apple-system, BlinkMacSystemFont, 'PingFang SC', sans-serif" font-size="16" font-weight="800" fill="#202328">近 30 天专注分布</text>

  <g>
    <rect x="426" y="348" width="18" height="18" rx="5" fill="#E3E9E4"/>
    <rect x="454" y="348" width="18" height="18" rx="5" fill="#D4E6DB"/>
    <rect x="482" y="348" width="18" height="18" rx="5" fill="#B9D9C7"/>
    <rect x="510" y="348" width="18" height="18" rx="5" fill="#7BAF9E"/>
    <rect x="538" y="348" width="18" height="18" rx="5" fill="#4D8B7C"/>
    <rect x="566" y="348" width="18" height="18" rx="5" fill="#D4E6DB"/>
    <rect x="594" y="348" width="18" height="18" rx="5" fill="#315F55"/>
    <rect x="622" y="348" width="18" height="18" rx="5" fill="#B9D9C7"/>
    <rect x="650" y="348" width="18" height="18" rx="5" fill="#E3E9E4"/>
    <rect x="678" y="348" width="18" height="18" rx="5" fill="#D4E6DB"/>

    <rect x="426" y="376" width="18" height="18" rx="5" fill="#7BAF9E"/>
    <rect x="454" y="376" width="18" height="18" rx="5" fill="#B9D9C7"/>
    <rect x="482" y="376" width="18" height="18" rx="5" fill="#D4E6DB"/>
    <rect x="510" y="376" width="18" height="18" rx="5" fill="#315F55"/>
    <rect x="538" y="376" width="18" height="18" rx="5" fill="#7BAF9E"/>
    <rect x="566" y="376" width="18" height="18" rx="5" fill="#E3E9E4"/>
    <rect x="594" y="376" width="18" height="18" rx="5" fill="#B9D9C7"/>
    <rect x="622" y="376" width="18" height="18" rx="5" fill="#D4E6DB"/>
    <rect x="650" y="376" width="18" height="18" rx="5" fill="#7BAF9E"/>
    <rect x="678" y="376" width="18" height="18" rx="5" fill="#E3E9E4"/>

    <rect x="426" y="404" width="18" height="18" rx="5" fill="#D4E6DB"/>
    <rect x="454" y="404" width="18" height="18" rx="5" fill="#7BAF9E"/>
    <rect x="482" y="404" width="18" height="18" rx="5" fill="#315F55"/>
    <rect x="510" y="404" width="18" height="18" rx="5" fill="#B9D9C7"/>
    <rect x="538" y="404" width="18" height="18" rx="5" fill="#D4E6DB"/>
    <rect x="566" y="404" width="18" height="18" rx="5" fill="#E3E9E4"/>
    <rect x="594" y="404" width="18" height="18" rx="5" fill="#7BAF9E"/>
    <rect x="622" y="404" width="18" height="18" rx="5" fill="#4D8B7C"/>
    <rect x="650" y="404" width="18" height="18" rx="5" fill="#E3E9E4"/>
    <rect x="678" y="404" width="18" height="18" rx="5" fill="#B9D9C7"/>
  </g>

  <g filter="url(#panelShadow)">
    <rect x="252" y="466" width="224" height="150" rx="22" fill="url(#panelBg)"/>
  </g>
  <text x="280" y="500" font-family="-apple-system, BlinkMacSystemFont, 'PingFang SC', sans-serif" font-size="16" font-weight="800" fill="#202328">今日任务占比</text>
  <g transform="rotate(-90 338 554)">
    <circle cx="338" cy="554" r="38" fill="none" stroke="#E9EEE9" stroke-width="16"/>
    <circle cx="338" cy="554" r="38" fill="none" stroke="#7BAF9E" stroke-width="16" stroke-linecap="round" stroke-dasharray="106 239" stroke-dashoffset="0"/>
    <circle cx="338" cy="554" r="38" fill="none" stroke="#E6B45F" stroke-width="16" stroke-linecap="round" stroke-dasharray="58 239" stroke-dashoffset="-116"/>
    <circle cx="338" cy="554" r="38" fill="none" stroke="#D77B72" stroke-width="16" stroke-linecap="round" stroke-dasharray="40 239" stroke-dashoffset="-188"/>
  </g>
  <text x="338" y="551" text-anchor="middle" font-family="-apple-system, BlinkMacSystemFont, 'PingFang SC', sans-serif" font-size="10" font-weight="700" fill="#7C8580">总时长</text>
  <text x="338" y="568" text-anchor="middle" font-family="-apple-system, BlinkMacSystemFont, 'PingFang SC', sans-serif" font-size="14" font-weight="900" fill="#202328">4h20m</text>
  <g>
    <circle cx="414" cy="530" r="5" fill="#7BAF9E"/>
    <text x="426" y="534" font-family="-apple-system, BlinkMacSystemFont, 'PingFang SC', sans-serif" font-size="11" font-weight="700" fill="#58625D">写作</text>
    <circle cx="414" cy="554" r="5" fill="#E6B45F"/>
    <text x="426" y="558" font-family="-apple-system, BlinkMacSystemFont, 'PingFang SC', sans-serif" font-size="11" font-weight="700" fill="#58625D">学习</text>
    <circle cx="414" cy="578" r="5" fill="#D77B72"/>
    <text x="426" y="582" font-family="-apple-system, BlinkMacSystemFont, 'PingFang SC', sans-serif" font-size="11" font-weight="700" fill="#58625D">整理</text>
  </g>

  <g filter="url(#panelShadow)">
    <rect x="500" y="466" width="224" height="150" rx="22" fill="url(#panelBg)"/>
  </g>
  <text x="528" y="500" font-family="-apple-system, BlinkMacSystemFont, 'PingFang SC', sans-serif" font-size="16" font-weight="800" fill="#202328">今日小时分布</text>
  <g>
    <path d="M528 584H694" stroke="#DDE4DD" stroke-width="1"/>
    <path d="M528 548H694" stroke="#E7ECE8" stroke-width="1" stroke-dasharray="4 8"/>
    <path d="M528 512H694" stroke="#E7ECE8" stroke-width="1" stroke-dasharray="4 8"/>
    <rect x="542" y="562" width="12" height="22" rx="5" fill="#D4E6DB"/>
    <rect x="566" y="536" width="12" height="48" rx="5" fill="#7BAF9E"/>
    <rect x="590" y="520" width="12" height="64" rx="5" fill="#4D8B7C"/>
    <rect x="614" y="550" width="12" height="34" rx="5" fill="#B9D9C7"/>
    <rect x="638" y="506" width="12" height="78" rx="5" fill="#315F55"/>
    <rect x="662" y="542" width="12" height="42" rx="5" fill="#E6B45F"/>
    <text x="538" y="604" font-family="-apple-system, BlinkMacSystemFont, 'PingFang SC', sans-serif" font-size="10" font-weight="600" fill="#8C9690">08</text>
    <text x="586" y="604" font-family="-apple-system, BlinkMacSystemFont, 'PingFang SC', sans-serif" font-size="10" font-weight="600" fill="#8C9690">10</text>
    <text x="634" y="604" font-family="-apple-system, BlinkMacSystemFont, 'PingFang SC', sans-serif" font-size="10" font-weight="600" fill="#8C9690">14</text>
    <text x="676" y="604" font-family="-apple-system, BlinkMacSystemFont, 'PingFang SC', sans-serif" font-size="10" font-weight="600" fill="#8C9690">20</text>
  </g>
</svg>
