<svg width="1200" height="760" viewBox="0 0 1200 760" fill="none" xmlns="http://www.w3.org/2000/svg">
  <defs>
    <filter id="softShadow" x="-20%" y="-20%" width="140%" height="140%">
      <feDropShadow dx="0" dy="18" stdDeviation="28" flood-color="#1F2933" flood-opacity="0.12"/>
    </filter>
    <filter id="panelShadow" x="-20%" y="-20%" width="140%" height="140%">
      <feDropShadow dx="0" dy="12" stdDeviation="18" flood-color="#1F2933" flood-opacity="0.08"/>
    </filter>
    <linearGradient id="appBg" x1="180" y1="80" x2="1060" y2="680" gradientUnits="userSpaceOnUse">
      <stop stop-color="#F7F8F3"/>
      <stop offset="0.55" stop-color="#F2F5F0"/>
      <stop offset="1" stop-color="#EEF3F4"/>
    </linearGradient>
    <linearGradient id="panelBg" x1="420" y1="170" x2="1020" y2="650" gradientUnits="userSpaceOnUse">
      <stop stop-color="#FFFFFF"/>
      <stop offset="1" stop-color="#F3F6F1"/>
    </linearGradient>
  </defs>

  <rect width="1200" height="760" fill="#E8ECE7"/>

  <g opacity="0.82">
    <rect x="760" y="18" width="72" height="30" rx="15" fill="#F7F8F3"/>
    <text x="796" y="38" text-anchor="middle" font-family="-apple-system, BlinkMacSystemFont, 'PingFang SC', sans-serif" font-size="15" font-weight="600" fill="#343A40">24:12</text>
    <rect x="842" y="18" width="30" height="30" rx="15" fill="#F7F8F3"/>
    <path d="M857 26C862 26 866 30 866 35C866 40 862 44 857 44C852 44 848 40 848 35C848 30 852 26 857 26Z" fill="#7BAF9E"/>
  </g>

  <rect x="110" y="70" width="980" height="620" rx="28" fill="url(#appBg)" filter="url(#softShadow)"/>

  <g>
    <circle cx="144" cy="100" r="6" fill="#EF7B70"/>
    <circle cx="164" cy="100" r="6" fill="#F0C15D"/>
    <circle cx="184" cy="100" r="6" fill="#79B57A"/>
  </g>

  <rect x="110" y="70" width="234" height="620" rx="28" fill="#F7F8F3"/>
  <path d="M344 98V662" stroke="#DDE4DD" stroke-width="1"/>

  <g>
    <circle cx="162" cy="154" r="24" fill="#DCEBE2"/>
    <path d="M154 155C154 149 158 145 162 145C166 145 170 149 170 155C170 161 166 165 162 165C158 165 154 161 154 155Z" fill="#6D9F8E"/>
    <text x="198" y="150" font-family="-apple-system, BlinkMacSystemFont, 'PingFang SC', sans-serif" font-size="16" font-weight="700" fill="#202328">TOCK</text>
    <text x="198" y="174" font-family="-apple-system, BlinkMacSystemFont, 'PingFang SC', sans-serif" font-size="13" font-weight="500" fill="#7C8580">今日 2.5 小时</text>
  </g>

  <g>
    <rect x="138" y="240" width="178" height="44" rx="12" fill="transparent"/>
    <rect x="151" y="253" width="18" height="18" rx="5" fill="#D9DED9"/>
    <text x="184" y="268" font-family="-apple-system, BlinkMacSystemFont, 'PingFang SC', sans-serif" font-size="15" font-weight="600" fill="#777F7A">专注</text>

    <rect x="138" y="300" width="178" height="44" rx="12" fill="#E7F0EA"/>
    <rect x="151" y="313" width="18" height="18" rx="5" fill="#7BAF9E"/>
    <text x="184" y="328" font-family="-apple-system, BlinkMacSystemFont, 'PingFang SC', sans-serif" font-size="15" font-weight="700" fill="#24282D">统计</text>

    <rect x="138" y="360" width="178" height="44" rx="12" fill="transparent"/>
    <rect x="151" y="373" width="18" height="18" rx="5" fill="#D9DED9"/>
    <text x="184" y="388" font-family="-apple-system, BlinkMacSystemFont, 'PingFang SC', sans-serif" font-size="15" font-weight="600" fill="#777F7A">任务</text>
  </g>

  <g>
    <text x="394" y="126" font-family="-apple-system, BlinkMacSystemFont, 'PingFang SC', sans-serif" font-size="20" font-weight="700" fill="#202328">统计</text>
    <text x="394" y="154" font-family="-apple-system, BlinkMacSystemFont, 'PingFang SC', sans-serif" font-size="14" font-weight="500" fill="#7C8580">今天的时间流向。</text>
  </g>

  <g>
    <rect x="686" y="112" width="232" height="40" rx="20" fill="#F5F7F3" stroke="#DDE4DD"/>
    <rect x="691" y="117" width="50" height="30" rx="15" fill="#E7F0EA"/>
    <text x="716" y="137" text-anchor="middle" font-family="-apple-system, BlinkMacSystemFont, 'PingFang SC', sans-serif" font-size="13" font-weight="800" fill="#2D3933">日</text>
    <text x="770" y="137" text-anchor="middle" font-family="-apple-system, BlinkMacSystemFont, 'PingFang SC', sans-serif" font-size="13" font-weight="700" fill="#7C8580">周</text>
    <text x="824" y="137" text-anchor="middle" font-family="-apple-system, BlinkMacSystemFont, 'PingFang SC', sans-serif" font-size="13" font-weight="700" fill="#7C8580">月</text>
    <text x="878" y="137" text-anchor="middle" font-family="-apple-system, BlinkMacSystemFont, 'PingFang SC', sans-serif" font-size="13" font-weight="700" fill="#7C8580">年</text>

    <rect x="934" y="112" width="114" height="40" rx="20" fill="#F5F7F3" stroke="#DDE4DD"/>
    <circle cx="956" cy="132" r="7" fill="#7BAF9E"/>
    <text x="982" y="137" text-anchor="middle" font-family="-apple-system, BlinkMacSystemFont, 'PingFang SC', sans-serif" font-size="13" font-weight="700" fill="#38413C">全部分类</text>
    <path d="M1028 128L1033 133L1038 128" stroke="#7C8580" stroke-width="1.5" stroke-linecap="round" stroke-linejoin="round"/>
  </g>

  <g filter="url(#panelShadow)">
    <rect x="394" y="178" width="654" height="208" rx="22" fill="url(#panelBg)"/>
  </g>
  <text x="428" y="218" font-family="-apple-system, BlinkMacSystemFont, 'PingFang SC', sans-serif" font-size="17" font-weight="800" fill="#202328">近 30 天专注分布</text>
  <text x="428" y="244" font-family="-apple-system, BlinkMacSystemFont, 'PingFang SC', sans-serif" font-size="13" font-weight="600" fill="#7C8580">颜色越深，专注时间越长</text>

  <g>
    <rect x="430" y="282" width="22" height="22" rx="5" fill="#E3E9E4"/>
    <rect x="460" y="282" width="22" height="22" rx="5" fill="#D4E6DB"/>
    <rect x="490" y="282" width="22" height="22" rx="5" fill="#B9D9C7"/>
    <rect x="520" y="282" width="22" height="22" rx="5" fill="#E3E9E4"/>
    <rect x="550" y="282" width="22" height="22" rx="5" fill="#7BAF9E"/>
    <rect x="580" y="282" width="22" height="22" rx="5" fill="#D4E6DB"/>
    <rect x="610" y="282" width="22" height="22" rx="5" fill="#4D8B7C"/>
    <rect x="640" y="282" width="22" height="22" rx="5" fill="#B9D9C7"/>
    <rect x="670" y="282" width="22" height="22" rx="5" fill="#E3E9E4"/>
    <rect x="700" y="282" width="22" height="22" rx="5" fill="#D4E6DB"/>
    <rect x="730" y="282" width="22" height="22" rx="5" fill="#7BAF9E"/>
    <rect x="760" y="282" width="22" height="22" rx="5" fill="#B9D9C7"/>
    <rect x="790" y="282" width="22" height="22" rx="5" fill="#D4E6DB"/>
    <rect x="820" y="282" width="22" height="22" rx="5" fill="#315F55"/>
    <rect x="850" y="282" width="22" height="22" rx="5" fill="#7BAF9E"/>
    <rect x="880" y="282" width="22" height="22" rx="5" fill="#E3E9E4"/>
    <rect x="910" y="282" width="22" height="22" rx="5" fill="#B9D9C7"/>
    <rect x="940" y="282" width="22" height="22" rx="5" fill="#D4E6DB"/>
    <rect x="970" y="282" width="22" height="22" rx="5" fill="#7BAF9E"/>
    <rect x="1000" y="282" width="22" height="22" rx="5" fill="#E3E9E4"/>

    <rect x="430" y="316" width="22" height="22" rx="5" fill="#D4E6DB"/>
    <rect x="460" y="316" width="22" height="22" rx="5" fill="#7BAF9E"/>
    <rect x="490" y="316" width="22" height="22" rx="5" fill="#315F55"/>
    <rect x="520" y="316" width="22" height="22" rx="5" fill="#B9D9C7"/>
    <rect x="550" y="316" width="22" height="22" rx="5" fill="#D4E6DB"/>
    <rect x="580" y="316" width="22" height="22" rx="5" fill="#E3E9E4"/>
    <rect x="610" y="316" width="22" height="22" rx="5" fill="#7BAF9E"/>
    <rect x="640" y="316" width="22" height="22" rx="5" fill="#4D8B7C"/>
    <rect x="670" y="316" width="22" height="22" rx="5" fill="#E3E9E4"/>
    <rect x="700" y="316" width="22" height="22" rx="5" fill="#B9D9C7"/>
  </g>

  <g>
    <text x="430" y="362" font-family="-apple-system, BlinkMacSystemFont, 'PingFang SC', sans-serif" font-size="12" font-weight="600" fill="#8C9690">0-3h</text>
    <rect x="474" y="352" width="14" height="14" rx="4" fill="#E3E9E4"/>
    <rect x="496" y="352" width="14" height="14" rx="4" fill="#D4E6DB"/>
    <rect x="518" y="352" width="14" height="14" rx="4" fill="#7BAF9E"/>
    <rect x="540" y="352" width="14" height="14" rx="4" fill="#315F55"/>
    <text x="564" y="362" font-family="-apple-system, BlinkMacSystemFont, 'PingFang SC', sans-serif" font-size="12" font-weight="600" fill="#8C9690">9h+</text>
  </g>

  <g filter="url(#panelShadow)">
    <rect x="394" y="410" width="314" height="230" rx="22" fill="url(#panelBg)"/>
  </g>
  <text x="426" y="448" font-family="-apple-system, BlinkMacSystemFont, 'PingFang SC', sans-serif" font-size="17" font-weight="800" fill="#202328">今日任务占比</text>
  <g transform="rotate(-90 552 530)">
    <circle cx="552" cy="530" r="66" fill="none" stroke="#E9EEE9" stroke-width="28"/>
    <circle cx="552" cy="530" r="66" fill="none" stroke="#7BAF9E" stroke-width="28" stroke-linecap="round" stroke-dasharray="186 415" stroke-dashoffset="0"/>
    <circle cx="552" cy="530" r="66" fill="none" stroke="#E6B45F" stroke-width="28" stroke-linecap="round" stroke-dasharray="102 415" stroke-dashoffset="-202"/>
    <circle cx="552" cy="530" r="66" fill="none" stroke="#D77B72" stroke-width="28" stroke-linecap="round" stroke-dasharray="70 415" stroke-dashoffset="-320"/>
  </g>
  <text x="552" y="524" text-anchor="middle" font-family="-apple-system, BlinkMacSystemFont, 'PingFang SC', sans-serif" font-size="13" font-weight="700" fill="#7C8580">总时长</text>
  <text x="552" y="548" text-anchor="middle" font-family="-apple-system, BlinkMacSystemFont, 'PingFang SC', sans-serif" font-size="20" font-weight="800" fill="#202328">4h20m</text>
  <g>
    <circle cx="636" cy="504" r="6" fill="#7BAF9E"/>
    <text x="650" y="509" font-family="-apple-system, BlinkMacSystemFont, 'PingFang SC', sans-serif" font-size="12" font-weight="700" fill="#58625D">写作</text>
    <circle cx="636" cy="530" r="6" fill="#E6B45F"/>
    <text x="650" y="535" font-family="-apple-system, BlinkMacSystemFont, 'PingFang SC', sans-serif" font-size="12" font-weight="700" fill="#58625D">学习</text>
    <circle cx="636" cy="556" r="6" fill="#D77B72"/>
    <text x="650" y="561" font-family="-apple-system, BlinkMacSystemFont, 'PingFang SC', sans-serif" font-size="12" font-weight="700" fill="#58625D">整理</text>
  </g>

  <g filter="url(#panelShadow)">
    <rect x="734" y="410" width="314" height="230" rx="22" fill="url(#panelBg)"/>
  </g>
  <text x="766" y="448" font-family="-apple-system, BlinkMacSystemFont, 'PingFang SC', sans-serif" font-size="17" font-weight="800" fill="#202328">今日小时分布</text>
  <g>
    <path d="M776 594H1014" stroke="#DDE4DD" stroke-width="1"/>
    <path d="M776 548H1014" stroke="#E7ECE8" stroke-width="1" stroke-dasharray="4 8"/>
    <path d="M776 502H1014" stroke="#E7ECE8" stroke-width="1" stroke-dasharray="4 8"/>
    <rect x="790" y="570" width="14" height="24" rx="5" fill="#D4E6DB"/>
    <rect x="822" y="536" width="14" height="58" rx="5" fill="#7BAF9E"/>
    <rect x="854" y="514" width="14" height="80" rx="5" fill="#4D8B7C"/>
    <rect x="886" y="552" width="14" height="42" rx="5" fill="#B9D9C7"/>
    <rect x="918" y="488" width="14" height="106" rx="5" fill="#315F55"/>
    <rect x="950" y="548" width="14" height="46" rx="5" fill="#E6B45F"/>
    <rect x="982" y="574" width="14" height="20" rx="5" fill="#D77B72"/>
    <text x="790" y="618" font-family="-apple-system, BlinkMacSystemFont, 'PingFang SC', sans-serif" font-size="11" font-weight="600" fill="#8C9690">08</text>
    <text x="854" y="618" font-family="-apple-system, BlinkMacSystemFont, 'PingFang SC', sans-serif" font-size="11" font-weight="600" fill="#8C9690">10</text>
    <text x="918" y="618" font-family="-apple-system, BlinkMacSystemFont, 'PingFang SC', sans-serif" font-size="11" font-weight="600" fill="#8C9690">14</text>
    <text x="982" y="618" font-family="-apple-system, BlinkMacSystemFont, 'PingFang SC', sans-serif" font-size="11" font-weight="600" fill="#8C9690">20</text>
  </g>
</svg>
