<svg width="1200" height="700" viewBox="0 0 1200 700" fill="none" xmlns="http://www.w3.org/2000/svg">
  <defs>
    <filter id="softShadow" x="-20%" y="-20%" width="140%" height="140%">
      <feDropShadow dx="0" dy="18" stdDeviation="28" flood-color="#1F2933" flood-opacity="0.12"/>
    </filter>
    <filter id="panelShadow" x="-20%" y="-20%" width="140%" height="140%">
      <feDropShadow dx="0" dy="10" stdDeviation="16" flood-color="#1F2933" flood-opacity="0.075"/>
    </filter>
    <linearGradient id="appBg" x1="180" y1="68" x2="1060" y2="638" gradientUnits="userSpaceOnUse">
      <stop stop-color="#F7F8F3"/>
      <stop offset="0.55" stop-color="#F2F5F0"/>
      <stop offset="1" stop-color="#EEF3F4"/>
    </linearGradient>
    <linearGradient id="panelBg" x1="420" y1="150" x2="1020" y2="620" gradientUnits="userSpaceOnUse">
      <stop stop-color="#FFFFFF"/>
      <stop offset="1" stop-color="#F3F6F1"/>
    </linearGradient>
  </defs>

  <rect width="1200" height="700" fill="#E8ECE7"/>

  <g opacity="0.82">
    <rect x="760" y="18" width="72" height="30" rx="15" fill="#F7F8F3"/>
    <text x="796" y="38" text-anchor="middle" font-family="-apple-system, BlinkMacSystemFont, 'PingFang SC', sans-serif" font-size="15" font-weight="600" fill="#343A40">24:12</text>
    <rect x="842" y="18" width="30" height="30" rx="15" fill="#F7F8F3"/>
    <path d="M857 26C862 26 866 30 866 35C866 40 862 44 857 44C852 44 848 40 848 35C848 30 852 26 857 26Z" fill="#7BAF9E"/>
  </g>

  <rect x="110" y="58" width="980" height="584" rx="28" fill="url(#appBg)" filter="url(#softShadow)"/>

  <g>
    <circle cx="144" cy="88" r="6" fill="#EF7B70"/>
    <circle cx="164" cy="88" r="6" fill="#F0C15D"/>
    <circle cx="184" cy="88" r="6" fill="#79B57A"/>
  </g>

  <rect x="110" y="58" width="234" height="584" rx="28" fill="#F7F8F3"/>
  <path d="M344 86V614" stroke="#DDE4DD" stroke-width="1"/>

  <g>
    <circle cx="162" cy="142" r="24" fill="#DCEBE2"/>
    <path d="M154 143C154 137 158 133 162 133C166 133 170 137 170 143C170 149 166 153 162 153C158 153 154 149 154 143Z" fill="#6D9F8E"/>
    <text x="198" y="138" font-family="-apple-system, BlinkMacSystemFont, 'PingFang SC', sans-serif" font-size="16" font-weight="700" fill="#202328">TOCK</text>
    <text x="198" y="162" font-family="-apple-system, BlinkMacSystemFont, 'PingFang SC', sans-serif" font-size="13" font-weight="500" fill="#7C8580">今日 2.5 小时</text>
  </g>

  <g>
    <rect x="138" y="224" width="178" height="44" rx="12" fill="transparent"/>
    <rect x="151" y="237" width="18" height="18" rx="5" fill="#D9DED9"/>
    <text x="184" y="252" font-family="-apple-system, BlinkMacSystemFont, 'PingFang SC', sans-serif" font-size="15" font-weight="600" fill="#777F7A">专注</text>

    <rect x="138" y="284" width="178" height="44" rx="12" fill="#E7F0EA"/>
    <rect x="151" y="297" width="18" height="18" rx="5" fill="#7BAF9E"/>
    <text x="184" y="312" font-family="-apple-system, BlinkMacSystemFont, 'PingFang SC', sans-serif" font-size="15" font-weight="700" fill="#24282D">统计</text>

    <rect x="138" y="344" width="178" height="44" rx="12" fill="transparent"/>
    <rect x="151" y="357" width="18" height="18" rx="5" fill="#D9DED9"/>
    <text x="184" y="372" font-family="-apple-system, BlinkMacSystemFont, 'PingFang SC', sans-serif" font-size="15" font-weight="600" fill="#777F7A">任务</text>
  </g>

  <g>
    <text x="394" y="112" font-family="-apple-system, BlinkMacSystemFont, 'PingFang SC', sans-serif" font-size="20" font-weight="700" fill="#202328">统计</text>
    <text x="394" y="138" font-family="-apple-system, BlinkMacSystemFont, 'PingFang SC', sans-serif" font-size="14" font-weight="500" fill="#7C8580">今天的时间流向。</text>
  </g>

  <g>
    <rect x="686" y="96" width="232" height="40" rx="20" fill="#F5F7F3" stroke="#DDE4DD"/>
    <rect x="691" y="101" width="50" height="30" rx="15" fill="#E7F0EA"/>
    <text x="716" y="121" text-anchor="middle" font-family="-apple-system, BlinkMacSystemFont, 'PingFang SC', sans-serif" font-size="13" font-weight="800" fill="#2D3933">日</text>
    <text x="770" y="121" text-anchor="middle" font-family="-apple-system, BlinkMacSystemFont, 'PingFang SC', sans-serif" font-size="13" font-weight="700" fill="#7C8580">周</text>
    <text x="824" y="121" text-anchor="middle" font-family="-apple-system, BlinkMacSystemFont, 'PingFang SC', sans-serif" font-size="13" font-weight="700" fill="#7C8580">月</text>
    <text x="878" y="121" text-anchor="middle" font-family="-apple-system, BlinkMacSystemFont, 'PingFang SC', sans-serif" font-size="13" font-weight="700" fill="#7C8580">年</text>

    <rect x="934" y="96" width="114" height="40" rx="20" fill="#F5F7F3" stroke="#DDE4DD"/>
    <circle cx="956" cy="116" r="7" fill="#7BAF9E"/>
    <text x="982" y="121" text-anchor="middle" font-family="-apple-system, BlinkMacSystemFont, 'PingFang SC', sans-serif" font-size="13" font-weight="700" fill="#38413C">全部分类</text>
    <path d="M1028 112L1033 117L1038 112" stroke="#7C8580" stroke-width="1.5" stroke-linecap="round" stroke-linejoin="round"/>
  </g>

  <g filter="url(#panelShadow)">
    <rect x="394" y="154" width="654" height="142" rx="22" fill="url(#panelBg)"/>
  </g>
  <text x="426" y="188" font-family="-apple-system, BlinkMacSystemFont, 'PingFang SC', sans-serif" font-size="16" font-weight="800" fill="#7C8580">专注时间</text>
  <text x="426" y="232" font-family="-apple-system, BlinkMacSystemFont, 'PingFang SC', sans-serif" font-size="38" font-weight="900" fill="#202328">4小时 20分钟</text>
  <text x="426" y="262" font-family="-apple-system, BlinkMacSystemFont, 'PingFang SC', sans-serif" font-size="16" font-weight="700" fill="#7C8580">2026年7月10日</text>
  <text x="742" y="204" font-family="-apple-system, BlinkMacSystemFont, 'PingFang SC', sans-serif" font-size="14" font-weight="800" fill="#7C8580">专注记录</text>
  <text x="742" y="236" font-family="-apple-system, BlinkMacSystemFont, 'PingFang SC', sans-serif" font-size="24" font-weight="900" fill="#202328">3段</text>
  <text x="880" y="204" font-family="-apple-system, BlinkMacSystemFont, 'PingFang SC', sans-serif" font-size="14" font-weight="800" fill="#7C8580">平均时长</text>
  <text x="880" y="236" font-family="-apple-system, BlinkMacSystemFont, 'PingFang SC', sans-serif" font-size="24" font-weight="900" fill="#202328">1小时 26分钟</text>

  <g filter="url(#panelShadow)">
    <rect x="394" y="314" width="654" height="136" rx="22" fill="url(#panelBg)"/>
  </g>
  <text x="426" y="348" font-family="-apple-system, BlinkMacSystemFont, 'PingFang SC', sans-serif" font-size="16" font-weight="800" fill="#202328">近 30 天专注分布</text>

  <g>
    <rect x="624" y="348" width="18" height="18" rx="5" fill="#E3E9E4"/>
    <rect x="652" y="348" width="18" height="18" rx="5" fill="#D4E6DB"/>
    <rect x="680" y="348" width="18" height="18" rx="5" fill="#B9D9C7"/>
    <rect x="708" y="348" width="18" height="18" rx="5" fill="#7BAF9E"/>
    <rect x="736" y="348" width="18" height="18" rx="5" fill="#4D8B7C"/>
    <rect x="764" y="348" width="18" height="18" rx="5" fill="#D4E6DB"/>
    <rect x="792" y="348" width="18" height="18" rx="5" fill="#315F55"/>
    <rect x="820" y="348" width="18" height="18" rx="5" fill="#B9D9C7"/>
    <rect x="848" y="348" width="18" height="18" rx="5" fill="#E3E9E4"/>
    <rect x="876" y="348" width="18" height="18" rx="5" fill="#D4E6DB"/>

    <rect x="624" y="376" width="18" height="18" rx="5" fill="#7BAF9E"/>
    <rect x="652" y="376" width="18" height="18" rx="5" fill="#B9D9C7"/>
    <rect x="680" y="376" width="18" height="18" rx="5" fill="#D4E6DB"/>
    <rect x="708" y="376" width="18" height="18" rx="5" fill="#315F55"/>
    <rect x="736" y="376" width="18" height="18" rx="5" fill="#7BAF9E"/>
    <rect x="764" y="376" width="18" height="18" rx="5" fill="#E3E9E4"/>
    <rect x="792" y="376" width="18" height="18" rx="5" fill="#B9D9C7"/>
    <rect x="820" y="376" width="18" height="18" rx="5" fill="#D4E6DB"/>
    <rect x="848" y="376" width="18" height="18" rx="5" fill="#7BAF9E"/>
    <rect x="876" y="376" width="18" height="18" rx="5" fill="#E3E9E4"/>

    <rect x="624" y="404" width="18" height="18" rx="5" fill="#D4E6DB"/>
    <rect x="652" y="404" width="18" height="18" rx="5" fill="#7BAF9E"/>
    <rect x="680" y="404" width="18" height="18" rx="5" fill="#315F55"/>
    <rect x="708" y="404" width="18" height="18" rx="5" fill="#B9D9C7"/>
    <rect x="736" y="404" width="18" height="18" rx="5" fill="#D4E6DB"/>
    <rect x="764" y="404" width="18" height="18" rx="5" fill="#E3E9E4"/>
    <rect x="792" y="404" width="18" height="18" rx="5" fill="#7BAF9E"/>
    <rect x="820" y="404" width="18" height="18" rx="5" fill="#4D8B7C"/>
    <rect x="848" y="404" width="18" height="18" rx="5" fill="#E3E9E4"/>
    <rect x="876" y="404" width="18" height="18" rx="5" fill="#B9D9C7"/>
  </g>

  <g filter="url(#panelShadow)">
    <rect x="394" y="466" width="314" height="150" rx="22" fill="url(#panelBg)"/>
  </g>
  <text x="426" y="500" font-family="-apple-system, BlinkMacSystemFont, 'PingFang SC', sans-serif" font-size="16" font-weight="800" fill="#202328">今日任务占比</text>
  <g transform="rotate(-90 516 554)">
    <circle cx="516" cy="554" r="42" fill="none" stroke="#E9EEE9" stroke-width="18"/>
    <circle cx="516" cy="554" r="42" fill="none" stroke="#7BAF9E" stroke-width="18" stroke-linecap="round" stroke-dasharray="118 264" stroke-dashoffset="0"/>
    <circle cx="516" cy="554" r="42" fill="none" stroke="#E6B45F" stroke-width="18" stroke-linecap="round" stroke-dasharray="66 264" stroke-dashoffset="-130"/>
    <circle cx="516" cy="554" r="42" fill="none" stroke="#D77B72" stroke-width="18" stroke-linecap="round" stroke-dasharray="44 264" stroke-dashoffset="-208"/>
  </g>
  <text x="516" y="550" text-anchor="middle" font-family="-apple-system, BlinkMacSystemFont, 'PingFang SC', sans-serif" font-size="11" font-weight="700" fill="#7C8580">总时长</text>
  <text x="516" y="570" text-anchor="middle" font-family="-apple-system, BlinkMacSystemFont, 'PingFang SC', sans-serif" font-size="16" font-weight="900" fill="#202328">4h20m</text>
  <g>
    <circle cx="606" cy="528" r="6" fill="#7BAF9E"/>
    <text x="620" y="533" font-family="-apple-system, BlinkMacSystemFont, 'PingFang SC', sans-serif" font-size="12" font-weight="700" fill="#58625D">写作</text>
    <circle cx="606" cy="554" r="6" fill="#E6B45F"/>
    <text x="620" y="559" font-family="-apple-system, BlinkMacSystemFont, 'PingFang SC', sans-serif" font-size="12" font-weight="700" fill="#58625D">学习</text>
    <circle cx="606" cy="580" r="6" fill="#D77B72"/>
    <text x="620" y="585" font-family="-apple-system, BlinkMacSystemFont, 'PingFang SC', sans-serif" font-size="12" font-weight="700" fill="#58625D">整理</text>
  </g>

  <g filter="url(#panelShadow)">
    <rect x="734" y="466" width="314" height="150" rx="22" fill="url(#panelBg)"/>
  </g>
  <text x="766" y="500" font-family="-apple-system, BlinkMacSystemFont, 'PingFang SC', sans-serif" font-size="16" font-weight="800" fill="#202328">今日小时分布</text>
  <g>
    <path d="M776 584H1014" stroke="#DDE4DD" stroke-width="1"/>
    <path d="M776 548H1014" stroke="#E7ECE8" stroke-width="1" stroke-dasharray="4 8"/>
    <path d="M776 512H1014" stroke="#E7ECE8" stroke-width="1" stroke-dasharray="4 8"/>
    <rect x="790" y="562" width="14" height="22" rx="5" fill="#D4E6DB"/>
    <rect x="822" y="536" width="14" height="48" rx="5" fill="#7BAF9E"/>
    <rect x="854" y="520" width="14" height="64" rx="5" fill="#4D8B7C"/>
    <rect x="886" y="550" width="14" height="34" rx="5" fill="#B9D9C7"/>
    <rect x="918" y="506" width="14" height="78" rx="5" fill="#315F55"/>
    <rect x="950" y="542" width="14" height="42" rx="5" fill="#E6B45F"/>
    <rect x="982" y="566" width="14" height="18" rx="5" fill="#D77B72"/>
    <text x="790" y="604" font-family="-apple-system, BlinkMacSystemFont, 'PingFang SC', sans-serif" font-size="11" font-weight="600" fill="#8C9690">08</text>
    <text x="854" y="604" font-family="-apple-system, BlinkMacSystemFont, 'PingFang SC', sans-serif" font-size="11" font-weight="600" fill="#8C9690">10</text>
    <text x="918" y="604" font-family="-apple-system, BlinkMacSystemFont, 'PingFang SC', sans-serif" font-size="11" font-weight="600" fill="#8C9690">14</text>
    <text x="982" y="604" font-family="-apple-system, BlinkMacSystemFont, 'PingFang SC', sans-serif" font-size="11" font-weight="600" fill="#8C9690">20</text>
  </g>
</svg>
